<?xml version="1.0" encoding="utf-8"?>
<!-- Generator: Adobe Illustrator 25.0.1, SVG Export Plug-In . SVG Version: 6.00 Build 0)  -->
<svg version="1.1" id="Layer_1" xmlns="http://www.w3.org/2000/svg" xmlns:xlink="http://www.w3.org/1999/xlink" x="0px" y="0px"
	 viewBox="0 0 75.6 75.6" style="enable-background:new 0 0 75.6 75.6;" xml:space="preserve">
<style type="text/css">
	.st0{fill:url(#Path_27_1_);}
	.st1{fill:url(#Rectangle_22_1_);}
	.st2{fill:url(#Rectangle_23_1_);}
	.st3{fill:url(#Rectangle_24_1_);}
	.st4{fill:url(#Rectangle_25_1_);}
</style>
<g id="Group_130" transform="translate(-1086 -1789)">
	<g id="Group_103" transform="translate(-1167 -989)">
		<g id="Group_102" transform="translate(2253 2778)">
			<g id="Group_100" transform="translate(0 0)">
				<g id="Group_99">
					<linearGradient id="Path_27_1_" gradientUnits="userSpaceOnUse" x1="1.217696e-02" y1="37.8" x2="75.7" y2="37.8">
						<stop  offset="0" style="stop-color:#00A69C"/>
						<stop  offset="1" style="stop-color:#29B473"/>
					</linearGradient>
					<path id="Path_27" class="st0" d="M1.1,74.5c0.7,0.7,1.7,1.1,2.7,1.1s2-0.4,2.7-1.1l15-15c5.9,4.8,13.2,7.3,20.8,7.3
						c18.4,0,33.4-14.9,33.4-33.4l0,0C75.6,15,60.6,0,42.2,0C23.7,0,8.8,15,8.8,33.4c0,7.5,2.6,14.9,7.3,20.8l-15,15
						C-0.3,70.6-0.4,73,1.1,74.5z M42.2,59.2c-14.2,0-25.8-11.5-25.8-25.8S28,7.6,42.3,7.5C56.5,7.6,68,19.1,68,33.4
						S56.4,59.2,42.2,59.2L42.2,59.2z"/>
				</g>
			</g>
			<g id="Group_101" transform="translate(23.147 16.673)">
				<linearGradient id="Rectangle_22_1_" gradientUnits="userSpaceOnUse" x1="3.591309e-07" y1="23.85" x2="5.9" y2="23.85">
					<stop  offset="0" style="stop-color:#00A69C"/>
					<stop  offset="1" style="stop-color:#29B473"/>
				</linearGradient>
				<rect id="Rectangle_22" x="0" y="15.9" class="st1" width="5.9" height="15.9"/>
				<linearGradient id="Rectangle_23_1_" gradientUnits="userSpaceOnUse" x1="9.5" y1="19.45" x2="15.4" y2="19.45">
					<stop  offset="0" style="stop-color:#00A69C"/>
					<stop  offset="1" style="stop-color:#29B473"/>
				</linearGradient>
				<rect id="Rectangle_23" x="9.5" y="7" class="st2" width="5.9" height="24.9"/>
				<linearGradient id="Rectangle_24_1_" gradientUnits="userSpaceOnUse" x1="19.1" y1="22.25" x2="25" y2="22.25">
					<stop  offset="0" style="stop-color:#00A69C"/>
					<stop  offset="1" style="stop-color:#29B473"/>
				</linearGradient>
				<rect id="Rectangle_24" x="19.1" y="12.7" class="st3" width="5.9" height="19.1"/>
				<linearGradient id="Rectangle_25_1_" gradientUnits="userSpaceOnUse" x1="28.6" y1="15.9" x2="34.5" y2="15.9">
					<stop  offset="0" style="stop-color:#00A69C"/>
					<stop  offset="1" style="stop-color:#29B473"/>
				</linearGradient>
				<rect id="Rectangle_25" x="28.6" y="0" class="st4" width="5.9" height="31.8"/>
			</g>
		</g>
	</g>
</g>
</svg>
