<?xml version="1.0" encoding="utf-8"?>
<!-- Generator: Adobe Illustrator 25.0.1, SVG Export Plug-In . SVG Version: 6.00 Build 0)  -->
<svg version="1.1" id="Layer_1" xmlns="http://www.w3.org/2000/svg" xmlns:xlink="http://www.w3.org/1999/xlink" x="0px" y="0px"
	 viewBox="0 0 151.6 79" style="enable-background:new 0 0 151.6 79;" xml:space="preserve">
<style type="text/css">
	.st0{fill:#FFFFFF;}
	.st1{fill:url(#SVGID_1_);}
	.st2{fill:url(#SVGID_2_);}
</style>
<rect class="st0" width="151.6" height="79"/>
<g>
	<linearGradient id="SVGID_1_" gradientUnits="userSpaceOnUse" x1="26.6" y1="27.2" x2="72" y2="27.2">
		<stop  offset="0" style="stop-color:#00A69C"/>
		<stop  offset="1" style="stop-color:#29B473"/>
	</linearGradient>
	<path class="st1" d="M47.8,35.9h2.9H72V18.5H50.7h-2.9H26.6v17.4H47.8z M51,21.6h17.8v11.1H51V21.6z M29.7,21.6h17.8v11.1H29.7
		V21.6z"/>
	<linearGradient id="SVGID_2_" gradientUnits="userSpaceOnUse" x1="0" y1="41.25" x2="151.6" y2="41.25">
		<stop  offset="0" style="stop-color:#00A69C"/>
		<stop  offset="1" style="stop-color:#29B473"/>
	</linearGradient>
	<path class="st2" d="M52.4,69.2c1.3,5.5,6.3,9.7,12.2,9.7s10.9-4.2,12.2-9.7H82l0,0h27.1l0,0h17h2.7h17.1v9.4h5.7V58.9h-5.7v4.5
		h-17.1V41.5c0-0.7-0.1-1.5-0.3-2.2l-9.2-31.9c-0.6-2.2-2.6-3.8-4.9-3.8H15.1c-2.6,0-4.8,1.9-5.2,4.5v25.4H7.3
		c-4-0.1-7.3,3.2-7.3,7.2V56c0,4,3.2,7.2,7.2,7.2h2.6v1.5V65c0.4,2.4,2.6,4.2,5,4.2H52.4z M123,49.6h-19.6v-4.8H123V49.6z
		 M100.3,38.8h-2.6V42h2.6v21.5H85.7V21.6h14.6C100.3,21.6,100.3,38.8,100.3,38.8z M82.5,49.6H15.6v-4.8h66.8
		C82.5,44.8,82.5,49.6,82.5,49.6z M15.6,51.4h66.8v12h-5.6c-1.4-5.5-6.3-9.7-12.2-9.7c-5.9,0-10.8,4.2-12.2,9.7H15.6V51.4z
		 M71.4,66.3c0,3.8-3,6.8-6.8,6.8c-3.8,0-6.8-3-6.8-6.8c0-3.8,3-6.8,6.8-6.8C68.4,59.6,71.4,62.6,71.4,66.3z M103.5,63.4v-12h19.6
		v12H103.5z M114,9.4l9.1,31.5c0.1,0.2,0.1,0.4,0.1,0.6v1.4h-19.6V18.5H82.5v24.4H15.6V9.4H114z M7.3,57.5c-0.8,0-1.5-0.6-1.5-1.5
		V40.8c0-0.8,0.6-1.5,1.5-1.5h2.6v18.2H7.3L7.3,57.5z"/>
</g>
</svg>
