<?xml version="1.0" encoding="utf-8"?>
<!-- Generator: Adobe Illustrator 25.0.1, SVG Export Plug-In . SVG Version: 6.00 Build 0)  -->
<svg version="1.1" id="Layer_1" xmlns="http://www.w3.org/2000/svg" xmlns:xlink="http://www.w3.org/1999/xlink" x="0px" y="0px"
	 viewBox="0 0 97.4 78.7" style="enable-background:new 0 0 97.4 78.7;" xml:space="preserve">
<style type="text/css">
	.st0{fill:url(#Path_17_1_);}
	.st1{fill:url(#Path_18_1_);}
	.st2{fill:url(#Path_19_1_);}
	.st3{fill:url(#Path_20_1_);}
	.st4{fill:url(#Path_21_1_);}
	.st5{fill:url(#Path_22_1_);}
</style>
<g id="Group_129" transform="translate(-820 -1786)">
	<g id="Layer_1_1_" transform="translate(731.763 1626.696)">
		<linearGradient id="Path_17_1_" gradientUnits="userSpaceOnUse" x1="98.4" y1="174.5471" x2="165.9" y2="174.5471">
			<stop  offset="0" style="stop-color:#00A69C"/>
			<stop  offset="1" style="stop-color:#29B473"/>
		</linearGradient>
		<path id="Path_17" class="st0" d="M104.1,189.7c4.9-18.1,23.6-28.8,41.7-23.8c2.9,0.8,5.6,1.9,8.2,3.4c1.2,0.7,2.3,1.4,3.3,2.2
			l0,0l-3.6,3.6l8.3,0.8l3.9,0.4l-0.5-4.6l-0.8-7.6l-3.6,3.6l0,0c-1-0.8-2.1-1.6-3.2-2.3c-18.4-11.6-42.7-6.2-54.3,12.2
			c-2.4,3.7-4.1,7.8-5.1,12.2C100.4,189.4,102.3,189.4,104.1,189.7L104.1,189.7z"/>
		<linearGradient id="Path_18_1_" gradientUnits="userSpaceOnUse" x1="107.5" y1="222.7878" x2="175.3" y2="222.7878">
			<stop  offset="0" style="stop-color:#00A69C"/>
			<stop  offset="1" style="stop-color:#29B473"/>
		</linearGradient>
		<path id="Path_18" class="st1" d="M169.6,207.8c-1.6,5.6-4.5,10.7-8.7,14.9c-10.9,10.9-27.8,13.1-41.1,5.3
			c-1.2-0.7-2.3-1.4-3.3-2.2l0,0l3.2-3.3l-7.6-0.7l-1.9-0.2l-1.8-0.2l0,0l-0.9-0.1l0.4,3.8l0.8,8.4l4-4l0,0
			c17.1,13.4,41.8,10.4,55.3-6.7c3.5-4.5,6-9.6,7.3-15.1c-0.9,0.2-1.8,0.2-2.7,0.2C171.5,208.1,170.5,208,169.6,207.8z"/>
		<linearGradient id="Path_19_1_" gradientUnits="userSpaceOnUse" x1="119" y1="198.65" x2="154.8" y2="198.65">
			<stop  offset="0" style="stop-color:#00A69C"/>
			<stop  offset="1" style="stop-color:#29B473"/>
		</linearGradient>
		<path id="Path_19" class="st2" d="M154.5,201.9c0.4-2.2,0.4-4.4,0-6.5l-3.9-0.6c-0.3-1.1-0.7-2.2-1.3-3.2l2.4-3.1
			c-1.2-1.8-2.8-3.4-4.6-4.6l-3.1,2.4c-1-0.6-2.1-1-3.2-1.3l-0.6-3.9c-1.1-0.2-2.2-0.3-3.3-0.3s-2.2,0.1-3.3,0.3L133,185
			c-1.1,0.3-2.2,0.7-3.2,1.3l-3.1-2.4c-1.8,1.2-3.4,2.8-4.6,4.6l2.4,3.1c-0.6,1-1,2.1-1.3,3.2l-3.9,0.6c-0.4,2.2-0.4,4.4,0,6.5
			l3.9,0.6c0.3,1.1,0.7,2.2,1.3,3.2l-2.4,3.1c1.2,1.8,2.8,3.4,4.6,4.6l3.2-2.4c1,0.6,2.1,1,3.2,1.3l0.6,3.9c1.1,0.2,2.2,0.3,3.3,0.3
			s2.2-0.1,3.3-0.3l0.6-3.9c1.1-0.3,2.2-0.7,3.2-1.3l3.2,2.4c1.8-1.2,3.4-2.8,4.6-4.6l-2.4-3.2c0.6-1,1-2.1,1.3-3.2L154.5,201.9z
			 M136.9,207.9c-5.1,0-9.2-4.1-9.2-9.2s4.1-9.2,9.2-9.2s9.2,4.1,9.2,9.2l0,0C146.1,203.7,142,207.9,136.9,207.9L136.9,207.9
			L136.9,207.9z"/>
		<linearGradient id="Path_20_1_" gradientUnits="userSpaceOnUse" x1="132.6" y1="198.7" x2="141.2" y2="198.7">
			<stop  offset="0" style="stop-color:#00A69C"/>
			<stop  offset="1" style="stop-color:#29B473"/>
		</linearGradient>
		<path id="Path_20" class="st3" d="M136.9,194.4c-2.4,0-4.3,1.9-4.3,4.3s1.9,4.3,4.3,4.3c2.4,0,4.3-1.9,4.3-4.3
			C141.2,196.3,139.3,194.4,136.9,194.4z"/>
		<linearGradient id="Path_21_1_" gradientUnits="userSpaceOnUse" x1="159.3" y1="193.5" x2="185.7" y2="193.5">
			<stop  offset="0" style="stop-color:#00A69C"/>
			<stop  offset="1" style="stop-color:#29B473"/>
		</linearGradient>
		<path id="Path_21" class="st4" d="M172.5,180.3c-7.3,0-13.2,5.9-13.2,13.2s5.9,13.2,13.2,13.2s13.2-5.9,13.2-13.2
			C185.6,186.2,179.7,180.3,172.5,180.3L172.5,180.3z M178.8,199.5c-1.3,1.4-3.1,2.1-5,2.2c-3.2-0.1-6-2.3-6.9-5.3h-1.7
			c-0.2,0-0.4-0.2-0.4-0.4v-1.4c0-0.2,0.2-0.4,0.4-0.4h1.2c0-0.3,0-0.5,0-0.8s0-0.5,0-0.8h-1.2c-0.2,0-0.4-0.2-0.4-0.4v-1.4
			c0-0.2,0.2-0.4,0.4-0.4h1.7c0.9-3.1,3.7-5.2,6.9-5.3c1.9,0,3.7,0.8,5,2.2c0.1,0.1,0.1,0.2,0.1,0.3s-0.1,0.2-0.1,0.3l-1.5,1.4
			c-0.2,0.1-0.4,0.1-0.5,0c-0.8-0.8-1.8-1.3-2.9-1.3c-1.6,0.1-3.1,1-3.8,2.5h4c0.2,0,0.4,0.2,0.4,0.4v1.4c0,0.2-0.2,0.4-0.4,0.4
			h-4.7c0,0.3-0.1,0.5-0.1,0.8s0,0.5,0,0.8h4.7c0.2,0,0.4,0.2,0.4,0.4v1.4c0,0.2-0.2,0.4-0.4,0.4l0,0h-4c0.7,1.5,2.2,2.4,3.8,2.5
			c1.1,0,2.1-0.5,2.9-1.3c0.1-0.2,0.4-0.2,0.5,0l1.5,1.3c0.1,0.1,0.1,0.2,0.1,0.3C178.9,199.4,178.9,199.5,178.8,199.5z"/>
		<linearGradient id="Path_22_1_" gradientUnits="userSpaceOnUse" x1="88.2" y1="204.2" x2="114.6" y2="204.2">
			<stop  offset="0" style="stop-color:#00A69C"/>
			<stop  offset="1" style="stop-color:#29B473"/>
		</linearGradient>
		<path id="Path_22" class="st5" d="M101.4,191c-7.3,0-13.2,5.9-13.2,13.2s5.9,13.2,13.2,13.2c7.3,0,13.2-5.9,13.2-13.2
			S108.7,191,101.4,191L101.4,191z M107.3,210.3c-1.3,1.4-3.1,2.1-5,2.2c-3.2-0.1-6-2.3-6.9-5.3h-1.7c-0.2,0-0.4-0.2-0.4-0.4l0,0
			v-1.4c0-0.2,0.2-0.4,0.4-0.4h1.2c0-0.3,0-0.5,0-0.8s0-0.5,0-0.8h-1.2c-0.2,0-0.4-0.2-0.4-0.4v-1.4c0-0.2,0.2-0.4,0.4-0.4h1.7
			c0.9-3.1,3.7-5.2,6.9-5.3c1.9,0,3.7,0.8,5,2.2c0.1,0.1,0.1,0.2,0.1,0.3s-0.1,0.2-0.1,0.3l-1.5,1.4c-0.2,0.1-0.4,0.1-0.5,0
			c-0.8-0.8-1.8-1.3-2.9-1.3c-1.6,0.1-3.1,1-3.8,2.5h4c0.2,0,0.4,0.2,0.4,0.4v1.4c0,0.2-0.2,0.4-0.4,0.4h-4.7c0,0.3-0.1,0.5-0.1,0.8
			s0,0.5,0,0.8h4.7c0.2,0,0.4,0.2,0.4,0.4v1.4c0,0.2-0.2,0.4-0.4,0.4h-4c0.7,1.5,2.2,2.4,3.8,2.5c1.1,0,2.1-0.5,2.9-1.3
			c0.1-0.2,0.4-0.2,0.5,0l1.5,1.3c0.1,0.1,0.1,0.2,0.1,0.3C107.4,210.1,107.4,210.2,107.3,210.3L107.3,210.3z"/>
	</g>
</g>
</svg>
