<?xml version="1.0" encoding="utf-8"?>
<!-- Generator: Adobe Illustrator 25.0.1, SVG Export Plug-In . SVG Version: 6.00 Build 0)  -->
<svg version="1.1" id="Layer_1" xmlns="http://www.w3.org/2000/svg" xmlns:xlink="http://www.w3.org/1999/xlink" x="0px" y="0px"
	 viewBox="0 0 66.5 49.8" style="enable-background:new 0 0 66.5 49.8;" xml:space="preserve">
<style type="text/css">
	.st0{fill:url(#envelope-solid_1_);}
</style>
<linearGradient id="envelope-solid_1_" gradientUnits="userSpaceOnUse" x1="0" y1="24.9" x2="66.5" y2="24.9">
	<stop  offset="0" style="stop-color:#00A69C"/>
	<stop  offset="1" style="stop-color:#29B473"/>
</linearGradient>
<path id="envelope-solid" class="st0" d="M65.2,16.5c0.3-0.3,0.8-0.2,1.1,0.1c0.1,0.1,0.2,0.3,0.2,0.5v26.5c0,3.4-2.8,6.2-6.2,6.2
	h-54c-3.4,0-6.2-2.8-6.2-6.2V17.1c0-0.4,0.3-0.8,0.8-0.8c0.2,0,0.3,0.1,0.5,0.2c2.9,2.3,6.8,5.1,20,14.7c2.7,2,7.4,6.2,12,6.2
	s9.3-4.3,12-6.2C58.5,21.6,62.3,18.7,65.2,16.5z M33.2,33.2c3,0.1,7.3-3.8,9.5-5.4C60,15.4,61.3,14.3,65.3,11.2
	c0.8-0.6,1.2-1.5,1.2-2.5V6.2c0-3.4-2.8-6.2-6.2-6.2h-54C2.8,0,0,2.8,0,6.2v2.5c0,1,0.4,1.9,1.2,2.5c4,3.1,5.3,4.2,22.5,16.7
	C25.9,29.4,30.2,33.3,33.2,33.2L33.2,33.2z"/>
</svg>
