<?xml version="1.0" encoding="utf-8"?>
<!-- Generator: Adobe Illustrator 25.0.1, SVG Export Plug-In . SVG Version: 6.00 Build 0)  -->
<svg version="1.1" id="Layer_1" xmlns="http://www.w3.org/2000/svg" xmlns:xlink="http://www.w3.org/1999/xlink" x="0px" y="0px"
	 viewBox="0 0 75.1 75.1" style="enable-background:new 0 0 75.1 75.1;" xml:space="preserve">
<style type="text/css">
	.st0{fill:url(#Path_13_1_);}
	.st1{fill:url(#Path_14_1_);}
	.st2{fill:url(#Path_15_1_);}
	.st3{fill:url(#Path_16_1_);}
</style>
<g id="Group_128" transform="translate(-507 -2543.196)">
	<g id="Group_96" transform="translate(507 2543.196)">
		<linearGradient id="Path_13_1_" gradientUnits="userSpaceOnUse" x1="-3.822554e-03" y1="37.55" x2="75.1" y2="37.55">
			<stop  offset="0" style="stop-color:#00A69C"/>
			<stop  offset="1" style="stop-color:#29B473"/>
		</linearGradient>
		<path id="Path_13" class="st0" d="M0,37.5C-0.3,16.9,17.2,0,37.5,0C58,0,75.1,17.3,75.1,37.7c-0.1,20.1-17,37.4-37.6,37.4
			C17.1,75.1-0.3,58.1,0,37.5z M37.4,70C54.8,70.5,70,55.6,70.1,37.7c0-18-14.5-32.6-32.5-32.7C19.6,5,4.9,19.6,4.9,37.6l0,0
			C4.9,55.6,20.2,70.4,37.4,70L37.4,70z"/>
		<linearGradient id="Path_14_1_" gradientUnits="userSpaceOnUse" x1="15.6" y1="50.2846" x2="59.5" y2="50.2846">
			<stop  offset="0" style="stop-color:#00A69C"/>
			<stop  offset="1" style="stop-color:#29B473"/>
		</linearGradient>
		<path id="Path_14" class="st1" d="M59.5,39.6C58.8,50.2,51.7,61,37.6,61.1c-13.9,0.1-21.3-10.5-22-21.5c0.9,0,1.7,0,2.6,0
			c0.3,0,0.5,0.6,0.6,0.9c0.7,2.1,1.5,4.1,2.5,6c2.8,5.1,7.4,7.5,13,8.2c3.4,0.4,6.8,0.2,10-0.7c6.2-1.9,9.7-6.3,11.5-12.3
			c0.7-2.3,0.7-2.3,3.1-2.2C59.1,39.6,59.3,39.6,59.5,39.6z"/>
		<linearGradient id="Path_15_1_" gradientUnits="userSpaceOnUse" x1="19.6973" y1="25.65" x2="31.7" y2="25.65">
			<stop  offset="0" style="stop-color:#00A69C"/>
			<stop  offset="1" style="stop-color:#29B473"/>
		</linearGradient>
		<path id="Path_15" class="st2" d="M25.7,19.7c3.3,0,6,2.6,6,5.9l0,0c0,3.3-2.7,6-6,6h-0.1c-3.3,0-5.9-2.7-5.9-6
			C19.6,22.3,22.3,19.7,25.7,19.7C25.6,19.7,25.7,19.7,25.7,19.7L25.7,19.7z"/>
		<linearGradient id="Path_16_1_" gradientUnits="userSpaceOnUse" x1="43.3972" y1="25.75" x2="55.4" y2="25.75">
			<stop  offset="0" style="stop-color:#00A69C"/>
			<stop  offset="1" style="stop-color:#29B473"/>
		</linearGradient>
		<path id="Path_16" class="st3" d="M55.4,25.7c0,3.3-2.6,5.9-5.8,6h-0.1c-3.3,0.1-6-2.5-6.1-5.8s2.5-6,5.8-6.1c0.1,0,0.1,0,0.2,0
			c3.2-0.1,5.9,2.5,6,5.7C55.4,25.5,55.4,25.6,55.4,25.7z"/>
	</g>
</g>
</svg>
