<?xml version="1.0" encoding="utf-8"?>
<!-- Generator: Adobe Illustrator 25.0.1, SVG Export Plug-In . SVG Version: 6.00 Build 0)  -->
<svg version="1.1" id="Layer_1" xmlns="http://www.w3.org/2000/svg" xmlns:xlink="http://www.w3.org/1999/xlink" x="0px" y="0px"
	 viewBox="0 0 151.6 79" style="enable-background:new 0 0 151.6 79;" xml:space="preserve">
<style type="text/css">
	.st0{fill:#FFFFFF;}
	.st1{fill:url(#Path_32_1_);}
	.st2{fill:url(#Ellipse_1_1_);}
	.st3{fill:url(#Path_33_1_);}
	.st4{fill:url(#Path_34_1_);}
</style>
<rect class="st0" width="151.6" height="79"/>
<g id="Group_126" transform="translate(-947 -2553.759)">
	<g id="Group_107" transform="translate(947 2553.759)">
		<g id="Group_106">
			<linearGradient id="Path_32_1_" gradientUnits="userSpaceOnUse" x1="0" y1="13.15" x2="79.3" y2="13.15">
				<stop  offset="0" style="stop-color:#00A69C"/>
				<stop  offset="1" style="stop-color:#29B473"/>
			</linearGradient>
			<path id="Path_32" class="st1" d="M39.6,8.1L3.2,26.2L0,19.7L39.6,0l39.7,19.9l-3.2,6.4L39.6,8.1z"/>
			<linearGradient id="Ellipse_1_1_" gradientUnits="userSpaceOnUse" x1="56.4" y1="43.3" x2="66.8" y2="43.3">
				<stop  offset="0" style="stop-color:#00A69C"/>
				<stop  offset="1" style="stop-color:#29B473"/>
			</linearGradient>
			<ellipse id="Ellipse_1" class="st2" cx="61.6" cy="43.3" rx="5.2" ry="5.2"/>
			<linearGradient id="Path_33_1_" gradientUnits="userSpaceOnUse" x1="2.7" y1="49" x2="66.5255" y2="49">
				<stop  offset="0" style="stop-color:#00A69C"/>
				<stop  offset="1" style="stop-color:#29B473"/>
			</linearGradient>
			<path id="Path_33" class="st3" d="M6.1,45.6c2.5-0.3,44-4.6,44-4.6s2.7,0,2.7,1.8v9.1h11.5l0,0c1.4,0.2,2.4,1.5,2.2,2.9
				c-0.1,1.2-1.1,2.1-2.2,2.2l0,0H2.7v-8.2C2.7,48.7,3.6,45.9,6.1,45.6z"/>
			<linearGradient id="Path_34_1_" gradientUnits="userSpaceOnUse" x1="2.8" y1="56.4214" x2="76.9" y2="56.4214">
				<stop  offset="0" style="stop-color:#00A69C"/>
				<stop  offset="1" style="stop-color:#29B473"/>
			</linearGradient>
			<path id="Path_34" class="st4" d="M71,61.9V36.1l0,0c0.4-1.6,2-2.5,3.6-2.2c1.1,0.2,1.9,1.1,2.2,2.2l0,0v0.3l0.1,42.2h-5.8V67.4
				H8.8V79h-6V61.9H71L71,61.9z"/>
		</g>
	</g>
</g>
</svg>
