<?xml version="1.0" encoding="utf-8"?>
<!-- Generator: Adobe Illustrator 25.0.1, SVG Export Plug-In . SVG Version: 6.00 Build 0)  -->
<svg version="1.1" id="Layer_1" xmlns="http://www.w3.org/2000/svg" xmlns:xlink="http://www.w3.org/1999/xlink" x="0px" y="0px"
	 viewBox="0 0 108 92" style="enable-background:new 0 0 108 92;" xml:space="preserve">
<style type="text/css">
	.st0{fill:#F7F8F9;}
	.st1{fill:url(#SVGID_1_);}
	.st2{fill:url(#SVGID_2_);}
	.st3{fill:url(#SVGID_3_);}
	.st4{fill:url(#SVGID_4_);}
	.st5{fill:url(#SVGID_5_);}
	.st6{fill:url(#SVGID_6_);}
	.st7{fill:url(#SVGID_7_);}
	.st8{fill:url(#SVGID_8_);}
	.st9{fill:url(#SVGID_9_);}
	.st10{fill:url(#SVGID_10_);}
	.st11{fill:url(#SVGID_11_);}
	.st12{fill:url(#SVGID_12_);}
	.st13{fill:url(#SVGID_13_);}
</style>
<rect class="st0" width="108" height="92"/>
<g>
	<linearGradient id="SVGID_1_" gradientUnits="userSpaceOnUse" x1="58.8" y1="45.959" x2="104.3" y2="45.959">
		<stop  offset="0" style="stop-color:#00A69C"/>
		<stop  offset="1" style="stop-color:#29B473"/>
	</linearGradient>
	<path class="st1" d="M93.5,26c-0.1,0.8-0.3,1.4-0.4,2.1c0,0.3-0.3,0.5-0.3,0.8c-0.1,0.7,0.1,1.2,0.8,1.6c1.6,1.2,3,2.6,4.2,4.2
		c0.3,0.4,0.4,0.4,0.8,0.3c1-0.3,2-0.5,3-0.7c0.1,0,0.5,0.1,0.5,0.4c0.8,1.7,1.4,3.4,2.1,5.1c0.1,0.4,0,0.5-0.3,0.8
		c-0.8,0.5-1.4,1-2.3,1.6c-0.4,0.3-0.4,0.7-0.4,1c0.4,2,0.4,3.9,0,5.9c-0.1,0.4,0,0.8,0.5,1c0.9,0.4,1.7,1,2.5,1.6
		c0.1,0.1,0.1,0.5,0.1,0.7c-0.7,1.7-1.3,3.4-2.1,5.1c0,0.1-0.4,0.3-0.5,0.3c-1-0.1-2.1-0.4-3.3-0.7c-0.1,0-0.4,0.1-0.5,0.3
		c-1.3,1.8-2.9,3.4-4.7,4.8c-0.4,0.3-0.1,0.7-0.1,0.9c0.1,0.9,0.3,1.8,0.5,2.7c0.1,0.4,0,0.5-0.4,0.7C92,67,91,67.4,89.8,67.9
		c-0.4,0.1-0.9,0.3-1.3,0.5c-0.5,0.3-0.9,0.1-1.2-0.4c-0.5-0.8-1-1.6-1.6-2.3c-0.1-0.3-0.3-0.3-0.7-0.3c-1.8,0.1-3.6,0.5-5.5,0.1
		c-1.3-0.4-1.6-0.1-2.3,1c-0.4,0.5-0.8,1-1,1.7c-0.3,0.4-0.5,0.4-0.8,0.3c-1.7-0.7-3.3-1.3-4.9-2.1c-0.1,0-0.3-0.3-0.4-0.3
		c0.3-1.2,0.5-2.3,0.7-3.5c0-0.1-0.1-0.4-0.3-0.5c-1.8-1.3-3.4-2.7-4.6-4.6c-0.4-0.7-0.9-0.3-1.4-0.3c-0.8,0.1-1.6,0.4-2.5,0.5
		c-0.4,0.1-0.5,0-0.7-0.4c-0.7-1.6-1.3-3.1-2-4.7c-0.1-0.3-0.3-0.4-0.4-0.7c0.9-0.7,1.7-1.3,2.7-1.8c0.5-0.4,0.5-0.7,0.5-1.3
		c0-2.1,0-4,0-6.1c0-0.4-0.1-0.5-0.4-0.8c-0.9-0.7-1.8-1.3-2.9-2c0.8-1.8,1.6-3.6,2.2-5.3c0.1-0.4,0.4-0.4,0.8-0.4
		c0.9,0.1,1.8,0.4,2.7,0.7c0.4,0.1,0.8,0,0.9-0.3c1.3-1.7,2.7-3.3,4.4-4.6c0.3-0.1,0.4-0.5,0.3-0.8c-0.1-0.9-0.4-1.7-0.5-2.6
		c-0.1-0.5-0.1-0.9,0.4-1.2c1.4-0.5,2.9-1.2,4.3-1.7c0.4-0.1,0.8-0.4,1-0.3c0.3,0.1,0.4,0.5,0.7,0.9c0.4,0.7,0.9,1.3,1.3,2
		c0.1,0.1,0.4,0.3,0.5,0.3c1.6,0,3.1-0.3,4.6-0.3c0.7,0,1.3,0.1,2,0.3c0.3,0,0.5-0.1,0.7-0.3c0.7-0.8,1.2-1.7,1.7-2.6
		c0.1-0.3,0.4-0.4,0.8-0.3c1.2,0.5,2.3,1,3.5,1.6C92.5,25.5,93.1,25.7,93.5,26z M67,37.7c-0.9-0.1-1.8-0.3-2.7-0.5
		c-0.7-0.1-1,0-1.2,0.7c-0.1,0.4-0.3,0.7-0.4,0.9c-0.3,0.4,0,0.5,0.3,0.8c0.8,0.5,1.6,1,2.3,1.6c0.1,0.1,0.3,0.4,0.3,0.5
		c0,0.4-0.1,0.7-0.1,1c-0.5,2.5-0.5,4.9,0.1,7.4c0.1,0.4,0,0.7-0.4,0.9c-0.5,0.3-0.9,0.7-1.4,0.9c-1.2,0.8-1.2,0.8-0.7,2.1
		c0.1,0.1,0.1,0.4,0.3,0.5c0.1,0.3,0.3,0.4,0.7,0.4c0.8-0.1,1.7-0.3,2.5-0.5c0.5-0.1,0.8,0,1,0.4c1.6,2.5,3.4,4.4,6,5.9
		c0.1,0.1,0.4,0.5,0.4,0.7c0,0.4-0.1,0.9-0.3,1.3c-0.1,0.7-0.3,1.3-0.4,2c0.8,0.4,1.4,0.7,2.2,0.9c0.7-0.9,1.2-1.7,1.7-2.6
		c0.3-0.5,0.5-0.4,1-0.4c1,0.1,2.2,0.5,3.4,0.5c1.3,0,2.7,0,4-0.4c1.3-0.3,1.8,0.1,2.5,1.2c1,1.7,1.2,1.7,3,0.9h0.1
		c0.1-0.1,0.3-0.4,0.1-0.5c-0.1-0.9-0.3-1.8-0.5-2.7c-0.1-0.4,0-0.5,0.4-0.8c2.5-1.4,4.4-3.5,5.9-6c0.3-0.4,0.5-0.5,0.9-0.4
		c0.9,0.1,1.7,0.4,2.6,0.5c0.1,0,0.5-0.1,0.5-0.3c0.3-0.4,0.4-0.9,0.7-1.4c0.1-0.4,0.1-0.5-0.3-0.8c-0.5-0.4-1.2-0.8-1.7-1.2
		c-0.9-0.7-0.9-0.7-0.7-1.8c0.5-2.6,0.5-5.2-0.1-7.7c-0.1-0.4,0-0.7,0.4-0.9c0.7-0.4,1.3-0.9,2.1-1.3c0.5-0.3,0.7-0.7,0.3-1.2
		c-0.3-0.4-0.4-0.8-0.5-1.2s-0.3-0.4-0.7-0.3c-0.9,0.3-1.7,0.4-2.6,0.5c-0.4,0.1-0.7,0-0.9-0.4c-0.5-0.9-1.2-1.7-1.8-2.5
		c-1.2-1.3-2.5-2.5-3.9-3.4c-0.4-0.3-0.7-0.5-0.5-1.2c0.3-0.8,0.4-1.6,0.5-2.3c0-0.1-0.1-0.5-0.4-0.7c-0.5-0.3-1.2-0.5-1.8-0.8
		c-0.5,0.8-1.2,1.7-1.7,2.5c-0.4,0.5-0.5,0.6-1,0.5c-2.5-0.5-4.9-0.8-7.4-0.1c-1.3,0.4-1.8-0.1-2.5-1.2c-0.9-1.6-1-1.6-2.7-0.9h-0.1
		c-0.4,0.1-0.5,0.3-0.4,0.7c0.1,0.8,0.3,1.7,0.5,2.5c0.1,0.5,0,0.7-0.4,0.9C70.6,32.9,68.5,35,67,37.7z"/>
	<linearGradient id="SVGID_2_" gradientUnits="userSpaceOnUse" x1="10.1416" y1="49.3696" x2="42.5904" y2="49.3696">
		<stop  offset="0" style="stop-color:#00A69C"/>
		<stop  offset="1" style="stop-color:#29B473"/>
	</linearGradient>
	<path class="st2" d="M37.1,65.7c-0.9,0-2,0-2.9,0c0,0.4-0.1,0.7-0.1,0.9C34,68.2,33.3,69.2,32,70c-0.1,0.1-0.3,0.4-0.4,0.5
		c-0.3,2-2.5,3.8-4.4,4c-1.7,0.3-3.1-0.1-4.4-1c-0.8-0.5-1.3-1.4-1.7-2.2c-0.4-0.7-0.5-1.2-1.2-1.6c-0.9-0.5-1.4-1.4-1.4-2.5
		c0-0.4,0-0.7-0.1-1c-0.1-0.1-0.4-0.4-0.5-0.4c-0.7,0-1.3,0-2,0c-0.4,0-0.5-0.1-0.5-0.5s0-0.9,0-1.3s0.1-0.5,0.5-0.5
		c0.7,0,1.2,0,2,0c-0.3-1-0.4-2-0.7-2.9c-0.1-0.7-0.3-1.4-0.4-2.1c-0.1-0.7-0.5-1.3-0.7-1.8c-0.7-1.4-1.2-2.9-1.8-4.3
		c-0.5-1.2-1.2-2.3-1.8-3.5c-0.9-1.8-2-3.5-2.2-5.6c-0.3-1.7-0.1-3.4,0-5.1c0.3-3.4,1.8-6.4,4.2-8.8c1.7-1.8,3.8-3.3,6.1-4.2
		c2.2-0.9,4.7-1.2,7-1c2.2,0.1,4.3,0.8,6.2,1.8c2.5,1.3,4.4,3.1,6,5.3c1.4,2.1,2.3,4.4,2.6,7c0.3,2.1,0.3,4.2-0.4,6.2
		c-0.5,1.4-1.2,2.9-1.8,4.2c-0.8,1.7-1.8,3.4-2.6,5.2c-0.9,2.1-1.6,4.2-2.2,6.4c-0.3,1-0.5,2.1-0.7,3.3c0.9,0,1.7,0,2.5,0
		C37.1,64.1,37.1,64.9,37.1,65.7z M20.4,63.2c0.1,0,0.3,0,0.3,0c3.6,0,7.4,0,11.1,0c0.4,0,0.5-0.3,0.5-0.5c0.1-0.8,0.3-1.6,0.5-2.2
		c1.2-4.7,2.9-9.1,5.5-13.1c1.3-2.2,2-4.6,2-7.2c0-2.3-0.7-4.7-1.8-6.8c-2.3-4-5.9-6.4-10.4-6.9c-3.1-0.4-6.2,0.3-9,2
		c-4,2.6-6.2,6.2-6.6,11.1c-0.3,2.6,0.4,5.1,1.7,7.4c0.9,1.6,1.8,3.3,2.6,4.9C18.5,55.4,19.6,59.1,20.4,63.2z M31.7,65.8
		c-3.8,0-7.3,0-10.9,0c0,0.3,0.1,0.5,0.1,0.7c0.1,1.3,0.4,1.6,1.7,1.6c2,0,3.8,0,5.7,0c0.8,0,1.4,0,2.2,0c0.5,0,0.9-0.4,1-0.9
		C31.7,66.7,31.7,66.3,31.7,65.8z M23.4,70.6c0.7,1,1.6,1.6,2.6,1.7c1.3,0.1,2.3-0.4,3.1-1.7C27.3,70.6,25.5,70.6,23.4,70.6z"/>
	<linearGradient id="SVGID_3_" gradientUnits="userSpaceOnUse" x1="31.0362" y1="9.2072" x2="79.6" y2="9.2072">
		<stop  offset="0" style="stop-color:#00A69C"/>
		<stop  offset="1" style="stop-color:#29B473"/>
	</linearGradient>
	<path class="st3" d="M77,11.9c0-1.8,0-3.5,0-5.3c0.7,0,1.3,0,2,0c0.1,0,0.4,0.4,0.4,0.7c0.1,0.9,0.1,2,0.1,2.9
		c0,1.8,0.1,3.6,0.1,5.3c0,0.4-0.1,0.7-0.5,0.7c-1.3,0-2.6,0.1-3.9,0.1c-1.4,0-2.9,0.1-4.4,0.1c-0.5,0-0.7-0.1-0.7-0.7
		c0-0.4,0-0.7,0-1c0-0.5,0.3-0.7,0.7-0.7c0.8,0,1.6,0,2.3,0c0.7,0,1.3-0.1,2-0.3c-5.7-5.5-12.5-9-20.7-9.4C46.3,4,39,6.5,32.5,11.3
		c-0.4-0.4-0.8-0.9-1.2-1.4c-0.4-0.3-0.3-0.4,0-0.7c2-1.2,3.9-2.5,5.9-3.5C39,4.8,41,4.1,42.9,3.5c1.3-0.4,2.7-0.8,4.2-1
		c0.9-0.1,1.8-0.3,2.7-0.3c1.4-0.1,2.7-0.3,4.2-0.1c1.6,0.1,3.3,0.3,4.8,0.7c1.3,0.3,2.6,0.5,3.9,1c1.6,0.5,3,1.2,4.6,1.8
		c1.6,0.8,3,1.6,4.4,2.5c1.7,1.2,3.4,2.5,4.9,3.8C76.7,11.7,76.9,11.8,77,11.9z"/>
	<linearGradient id="SVGID_4_" gradientUnits="userSpaceOnUse" x1="30.8" y1="81.8796" x2="79.6" y2="81.8796">
		<stop  offset="0" style="stop-color:#00A69C"/>
		<stop  offset="1" style="stop-color:#29B473"/>
	</linearGradient>
	<path class="st4" d="M75.3,77.2c-0.9,0-1.7,0-2.6,0c-0.7,0-1.3,0-2,0c-0.3,0-0.5-0.3-0.5-0.4c0-0.7,0-1.4,0-2.1
		c1.8,0.1,3.5,0.1,5.2,0.1c1.3,0,2.5,0.1,3.8,0.1c0.1,0,0.4,0.3,0.4,0.5c0,1-0.1,2.1-0.3,3.3c0,0.4,0,0.8,0,1.2c0,1.3,0,2.6,0,3.9
		c0,0.7-0.3,0.8-0.9,0.7c-0.5-0.1-0.9-0.1-1.4-0.1c0-1.7,0-3.4,0-5.3c-7.5,6.5-16,10.5-26,9.9c-7.4-0.4-14-3-20.2-7.5
		c0.5-0.7,1-1.2,1.6-1.7c6.5,4.9,13.9,7.5,22.1,7c8.1-0.5,14.8-4,20.8-9.4C75.4,77.5,75.3,77.4,75.3,77.2z"/>
	<linearGradient id="SVGID_5_" gradientUnits="userSpaceOnUse" x1="3.1" y1="40.3" x2="7.3338" y2="40.3">
		<stop  offset="0" style="stop-color:#00A69C"/>
		<stop  offset="1" style="stop-color:#29B473"/>
	</linearGradient>
	<path class="st5" d="M3.3,39.1c1.3,0,2.5,0,3.6,0c0.1,0,0.3,0.3,0.4,0.4l0,0c0.1,2,0.1,2-1.8,2c-0.5,0-1.2,0-1.7,0
		s-0.7-0.1-0.7-0.7C3.3,40.4,3.3,39.8,3.3,39.1z"/>
	<linearGradient id="SVGID_6_" gradientUnits="userSpaceOnUse" x1="45.3" y1="40.4" x2="49.4" y2="40.4">
		<stop  offset="0" style="stop-color:#00A69C"/>
		<stop  offset="1" style="stop-color:#29B473"/>
	</linearGradient>
	<path class="st6" d="M47.3,39.1c0.5,0,0.9,0,1.4,0s0.7,0.1,0.7,0.7c0,0.4,0,0.8,0,1.2c0,0.5-0.1,0.7-0.7,0.7c-0.9,0-1.8,0-2.7,0
		c-0.5,0-0.7-0.1-0.7-0.7c0-0.4,0-0.8,0-1.2c0-0.5,0.1-0.7,0.7-0.7C46.4,39.2,46.8,39.1,47.3,39.1z"/>
	<linearGradient id="SVGID_7_" gradientUnits="userSpaceOnUse" x1="25.0556" y1="19.3058" x2="27.6" y2="19.3058">
		<stop  offset="0" style="stop-color:#00A69C"/>
		<stop  offset="1" style="stop-color:#29B473"/>
	</linearGradient>
	<path class="st7" d="M27.4,21.3c-0.7,0-1.3,0-1.8,0c-0.4,0-0.5-0.3-0.5-0.5c0-0.9-0.1-2,0-2.9c0.1-1,1.2-0.4,1.8-0.5
		c0.4-0.1,0.7,0.1,0.7,0.7C27.4,19.1,27.4,20.1,27.4,21.3z"/>
	<linearGradient id="SVGID_8_" gradientUnits="userSpaceOnUse" x1="9.1" y1="55.2278" x2="13.7" y2="55.2278">
		<stop  offset="0" style="stop-color:#00A69C"/>
		<stop  offset="1" style="stop-color:#29B473"/>
	</linearGradient>
	<path class="st8" d="M13.7,54.5c-1,1-2,2-3,2.9c-0.4-0.5-0.9-1.2-1.6-2c0.8-0.7,1.7-1.6,2.6-2.3c0.1-0.1,0.4,0,0.5,0
		C12.8,53.7,13.1,54.1,13.7,54.5z"/>
	<linearGradient id="SVGID_9_" gradientUnits="userSpaceOnUse" x1="39" y1="55.0375" x2="43.075" y2="55.0375">
		<stop  offset="0" style="stop-color:#00A69C"/>
		<stop  offset="1" style="stop-color:#29B473"/>
	</linearGradient>
	<path class="st9" d="M39,54.7c0.7-0.7,1.2-1.2,1.7-1.7c0.8,0.8,1.6,1.7,2.3,2.5c0.1,0.1,0.1,0.4,0,0.5c-0.3,0.4-0.7,0.8-1,1
		c-0.1,0.1-0.4,0.1-0.5,0C40.6,56.3,39.8,55.5,39,54.7z"/>
	<linearGradient id="SVGID_10_" gradientUnits="userSpaceOnUse" x1="9.2" y1="25.4444" x2="13.375" y2="25.4444">
		<stop  offset="0" style="stop-color:#00A69C"/>
		<stop  offset="1" style="stop-color:#29B473"/>
	</linearGradient>
	<path class="st10" d="M9.2,24.8c0.5-0.4,0.9-0.9,1.4-1.3c0.1-0.1,0.4-0.1,0.5,0c0.8,0.8,1.6,1.4,2.2,2.2c0.1,0.1,0.1,0.4,0,0.5
		c-0.3,0.4-0.7,0.7-1,1c-0.3,0.4-0.5,0.3-0.8,0C10.9,26.5,10,25.7,9.2,24.8z"/>
	<linearGradient id="SVGID_11_" gradientUnits="userSpaceOnUse" x1="39.0362" y1="25.25" x2="43.1" y2="25.25">
		<stop  offset="0" style="stop-color:#00A69C"/>
		<stop  offset="1" style="stop-color:#29B473"/>
	</linearGradient>
	<path class="st11" d="M40.5,27.5c-0.4-0.4-0.7-0.8-1.2-1.2c-0.4-0.3-0.3-0.5,0-0.8c0.8-0.8,1.4-1.6,2.2-2.5
		c0.7,0.7,1.2,1.2,1.6,1.7C42.3,25.7,41.4,26.6,40.5,27.5z"/>
	<linearGradient id="SVGID_12_" gradientUnits="userSpaceOnUse" x1="70.2945" y1="45.9556" x2="93.9" y2="45.9556">
		<stop  offset="0" style="stop-color:#00A69C"/>
		<stop  offset="1" style="stop-color:#29B473"/>
	</linearGradient>
	<path class="st12" d="M81.9,34.2c6.8,0.1,12,5.1,12,11.7s-5.2,11.7-11.4,11.8c-7,0.3-12.2-5.5-12.2-11.7
		C70.1,39.5,75.4,34.2,81.9,34.2z M91.4,46c0.3-5.1-4-9.6-9.4-9.5c-5.2,0-9.4,4.3-9.4,9.5c0,5.1,4.3,9.4,9.4,9.4
		C87,55.5,91.6,51.2,91.4,46z"/>
	<linearGradient id="SVGID_13_" gradientUnits="userSpaceOnUse" x1="16" y1="33.2406" x2="26.775" y2="33.2406">
		<stop  offset="0" style="stop-color:#00A69C"/>
		<stop  offset="1" style="stop-color:#29B473"/>
	</linearGradient>
	<path class="st13" d="M16,36.1c1.6-2.7,3.5-4.8,6.5-6c1.2-0.5,2.5-0.8,3.8-0.8c0.1,0,0.4,0.3,0.4,0.4c0.1,0.5,0.1,1.2,0,1.7
		c-0.1,0.7-0.9,0.4-1.3,0.4c-3.3,0.5-5.5,2.3-7,5.1c-0.1,0.3-0.4,0.4-0.7,0.1C17.2,36.6,16.5,36.4,16,36.1z"/>
</g>
</svg>
