<?xml version="1.0" encoding="utf-8"?>
<!-- Generator: Adobe Illustrator 25.0.1, SVG Export Plug-In . SVG Version: 6.00 Build 0)  -->
<svg version="1.1" id="Layer_1" xmlns="http://www.w3.org/2000/svg" xmlns:xlink="http://www.w3.org/1999/xlink" x="0px" y="0px"
	 viewBox="0 0 108 92" style="enable-background:new 0 0 108 92;" xml:space="preserve">
<style type="text/css">
	.st0{fill:#F7F8F9;}
	.st1{fill:url(#SVGID_1_);}
	.st2{fill:url(#SVGID_2_);}
	.st3{fill:url(#SVGID_3_);}
	.st4{fill:url(#SVGID_4_);}
	.st5{fill:url(#SVGID_5_);}
	.st6{fill:url(#SVGID_6_);}
	.st7{fill:url(#SVGID_7_);}
	.st8{fill:url(#SVGID_8_);}
	.st9{fill:url(#SVGID_9_);}
	.st10{fill:url(#SVGID_10_);}
	.st11{fill:url(#SVGID_11_);}
	.st12{fill:url(#SVGID_12_);}
</style>
<rect class="st0" width="108" height="92"/>
<g>
	<linearGradient id="SVGID_1_" gradientUnits="userSpaceOnUse" x1="21.8" y1="47.75" x2="81.3" y2="47.75">
		<stop  offset="0" style="stop-color:#00A69C"/>
		<stop  offset="1" style="stop-color:#29B473"/>
	</linearGradient>
	<path class="st1" d="M59.9,84.9c-0.7-2.5-2.3-2.7-4.3-2.7c-9.2,0.1-18.4,0-27.5,0c-2.7,0-3.9-1.2-3.9-4c0-18.4,0-36.7,0-55.1
		c0-2.8,1.2-4,4-4c15.4,0,30.7,0,46.1,0c3.1,0,4.3,1.2,4.3,4.3c0,12,0,24.1,0,36c0,2,0.7,3.2,2.7,3.7c0-0.5,0-0.9,0-1.3
		c0-5.1,0-10.2,0-15.3c0-10.1,0-20.1,0-30.2c0-3.5-2.3-5.7-5.7-5.7c-2.8,0-5.7,0-8.5,0c-0.3,0-0.7,0.1-0.9,0.1c0,1.1,0,2.1,0,3.2
		c0,1.9-1.2,3.1-3.1,3.1c-7.7,0-15.3,0-23,0c-1.9,0-3.1-1.2-3.1-3.1c0-1.1,0-2.1,0-3.3c-3.1,0-6,0-9,0c-4,0-6.2,2.3-6.2,6.2
		c0,20.6,0,41.2,0,61.8c0,3.9,2.3,6.1,6.1,6.1c10.4,0,20.6,0,31,0C59.1,84.9,59.5,84.9,59.9,84.9z M58.4,31.4c3.1,0,6.1,0,9,0
		c1.2,0,2.5,0.1,3.7,0c0.4,0,0.9-0.7,1.3-0.9c-0.4-0.4-0.8-0.8-1.3-1.2c-0.1-0.1-0.4,0-0.5,0c-8.2,0-16.5,0-24.6,0
		c-0.4,0-0.8,0-1.1,0.1s-0.7,0.7-0.7,0.9s0.3,0.8,0.7,0.9s0.8,0.1,1.2,0.1C50.3,31.4,54.4,31.4,58.4,31.4z M58.3,42.3
		C58.3,42.3,58.3,42.5,58.3,42.3c-4.1,0.1-8.2,0.1-12.4,0c-0.8,0-1.6,0.1-1.6,1.1c0,0.4,0.8,0.9,1.3,0.9c2.5,0.1,5.1,0.1,7.6,0.1
		c5.6,0,11.3,0.1,16.9,0.1c0.9,0,2.4,0.5,2.4-1.1s-1.6-1.2-2.5-1.2C66.1,42.3,62.3,42.3,58.3,42.3z M58.4,57.6c2.7,0,5.3,0,8,0
		c1.7,0,3.3,0,5.1,0c0.4,0,0.8-0.7,1.2-0.9c-0.4-0.4-0.8-0.8-1.2-1.1c-0.1-0.1-0.5,0-0.8,0c-8.1,0-16.2,0-24.3,0
		c-0.3,0-0.7-0.1-0.9,0c-0.4,0.3-0.9,0.7-0.9,1.1c0,0.4,0.5,0.8,0.9,1.1c0.3,0.1,0.7,0,0.9,0C50.3,57.6,54.4,57.6,58.4,57.6z
		 M35.2,47c2.7-2.5,4.9-4.9,7.3-7.2c0.7-0.5,1.1-1.2,0.4-1.9c-0.8-0.8-1.5-0.3-2,0.4c-1.7,1.9-3.3,3.7-5.1,5.7
		c-1.2-1-1.8-1.8-2.8-2.3c-0.4-0.3-1.2-0.1-1.7-0.3c0,0.5-0.1,1.2,0.1,1.6C32.8,44.5,34,45.6,35.2,47z M35,34.1
		c0.3,0,0.5-0.1,0.8-0.1c0.8-0.9,1.6-2,2.4-2.9c1.5-1.5,2.9-2.9,4.5-4.4c0.5-0.5,0.9-1.2,0.3-1.9c-0.7-0.7-1.3-0.3-1.9,0.3
		c-0.3,0.3-0.7,0.5-0.9,0.9c-1.5,1.6-3.1,3.3-4.5,4.9c-1.1-1.1-1.9-1.9-2.7-2.5c-0.4-0.3-1.1,0-1.6-0.1c0,0.5,0,1.2,0.3,1.6
		C32.6,31.3,33.8,32.6,35,34.1z M35.8,60.3c2.4-2.7,4.8-5.2,7-7.7c0.3-0.3,0.3-1.2,0.1-1.5c-0.3-0.3-0.9-0.3-1.5-0.3
		c-0.3,0-0.5,0.5-0.8,0.8c-1.7,1.7-3.5,3.5-5.2,5.3c-0.8-0.8-1.6-1.5-2.3-2.1c-0.5-0.5-1.1-0.9-1.9-0.3c-0.7,0.7-0.3,1.3,0.3,1.9
		C32.9,57.5,34.1,58.7,35.8,60.3z M35.7,70.2c-1.1-1.1-1.7-1.9-2.7-2.4c-0.4-0.3-1.1,0-1.6-0.1c0,0.5-0.1,1.3,0.1,1.6
		c1.2,1.3,2.5,2.5,4.1,3.9c2.3-2.4,4.5-4.7,6.8-7c0.5-0.5,1.3-1.2,0.5-2c-0.8-0.8-1.5-0.1-2,0.4C39.3,66.4,37.6,68.3,35.7,70.2z
		 M51.1,70.8c1.7,0,3.3,0,5.1,0c0.8,0,1.5,0,1.5-1.1c0-0.9-0.7-1.1-1.5-1.1c-3.5,0-6.9,0-10.4,0c-0.5,0-0.9,0.7-1.3,0.9
		c0.4,0.4,0.9,1.1,1.3,1.1C47.5,70.9,49.3,70.8,51.1,70.8z"/>
	<linearGradient id="SVGID_2_" gradientUnits="userSpaceOnUse" x1="21.6" y1="47.85" x2="81.1" y2="47.85">
		<stop  offset="0" style="stop-color:#00A69C"/>
		<stop  offset="1" style="stop-color:#29B473"/>
	</linearGradient>
	<path class="st2" d="M59.9,84.9c-0.4,0-0.8,0-1.2,0c-10.4,0-20.6,0-31,0c-3.9,0-6.1-2.3-6.1-6.1c0-20.6,0-41.2,0-61.8
		c0-4,2.3-6.2,6.2-6.2c2.9,0,5.9,0,9,0c0,1.2,0,2.3,0,3.3c0,1.9,1.2,3.1,3.1,3.1c7.7,0,15.3,0,23,0c1.9,0,3.1-1.2,3.1-3.1
		c0-1.1,0-2,0-3.2c0.4,0,0.7-0.1,0.9-0.1c2.8,0,5.7,0,8.5,0c3.5,0,5.7,2.4,5.7,5.7c0,10.1,0,20.1,0,30.2c0,5.1,0,10.2,0,15.3
		c0,0.4,0,0.9,0,1.3c-2-0.5-2.7-1.7-2.7-3.7c0.1-12,0-24.1,0-36c0-3.1-1.2-4.3-4.3-4.3c-15.4,0-30.7,0-46.1,0c-2.8,0-4,1.2-4,4
		c0,18.4,0,36.7,0,55.1c0,2.8,1.2,4,3.9,4c9.2,0,18.4,0,27.5,0C57.6,82.2,59.2,82.3,59.9,84.9z"/>
	<linearGradient id="SVGID_3_" gradientUnits="userSpaceOnUse" x1="58.7" y1="75.65" x2="85.5013" y2="75.65">
		<stop  offset="0" style="stop-color:#00A69C"/>
		<stop  offset="1" style="stop-color:#29B473"/>
	</linearGradient>
	<path class="st3" d="M72,89c-7.3,0-13.3-6.1-13.3-13.4c0-7.6,6-13.4,13.6-13.3c7.4,0.1,13.3,6.1,13.2,13.6
		C85.4,83.1,79.3,89.1,72,89z M70.3,77.7c-1.3-1.2-2.3-2.1-3.2-3.1c-0.7-0.7-1.5-0.7-2.1,0c-0.7,0.7-0.5,1.3,0.1,2
		c1.6,1.6,3.2,3.1,5.2,4.9c0.9-1.1,1.9-2.3,2.8-3.2c2-2,4-4,6-5.9c0.7-0.7,0.8-1.5,0.1-2.1c-0.7-0.7-1.5-0.5-2.1,0.1
		c-0.3,0.3-0.7,0.5-0.9,0.9C74.3,73.4,72.3,75.6,70.3,77.7z"/>
	<linearGradient id="SVGID_4_" gradientUnits="userSpaceOnUse" x1="38.1" y1="9.4262" x2="64.6248" y2="9.4262">
		<stop  offset="0" style="stop-color:#00A69C"/>
		<stop  offset="1" style="stop-color:#29B473"/>
	</linearGradient>
	<path class="st4" d="M51.4,15.9c-3.7,0-7.3,0-11,0c-1.9,0-2.3-0.4-2.3-2.3c0-1.2,0-2.4,0-3.6c0-1.3,0.7-1.9,1.9-1.9
		c1.1,0,2.1-0.1,3.2,0C44.9,8.2,46,7.4,46.9,6c0.8-1.1,1.9-2.1,3.1-2.7c2-0.9,4.1,0,5.3,2.1s2.8,2.8,5.2,2.7c4.7-0.3,4.1,0,4.1,4
		c0,3.7,0,3.7-3.7,3.7C57.8,15.9,54.6,15.9,51.4,15.9z M51.3,8.1c2.1,0,2.3,0,2.1-0.8c0-0.9-0.9-1.9-2-1.9s-2.1,0.9-2,1.9
		C49.5,8.7,50.7,7.7,51.3,8.1z"/>
	<linearGradient id="SVGID_5_" gradientUnits="userSpaceOnUse" x1="44.3" y1="30.45" x2="72.5" y2="30.45">
		<stop  offset="0" style="stop-color:#00A69C"/>
		<stop  offset="1" style="stop-color:#29B473"/>
	</linearGradient>
	<path class="st5" d="M58.4,31.4c-4.1,0-8.1,0-12.2,0c-0.4,0-0.9,0-1.2-0.1s-0.7-0.7-0.7-0.9c0-0.3,0.3-0.8,0.7-0.9
		c0.3-0.1,0.7-0.1,1.1-0.1c8.2,0,16.5,0,24.6,0c0.1,0,0.4-0.1,0.5,0c0.4,0.4,0.9,0.8,1.3,1.2c-0.4,0.4-0.8,0.9-1.3,0.9
		c-1.2,0.1-2.5,0-3.7,0C64.6,31.4,61.5,31.4,58.4,31.4z"/>
	<linearGradient id="SVGID_6_" gradientUnits="userSpaceOnUse" x1="44.3" y1="43.4648" x2="72.5" y2="43.4648">
		<stop  offset="0" style="stop-color:#00A69C"/>
		<stop  offset="1" style="stop-color:#29B473"/>
	</linearGradient>
	<path class="st6" d="M58.3,42.3c3.9,0,7.8,0,11.7,0c0.9,0,2.5-0.4,2.5,1.2s-1.5,1.1-2.4,1.1c-5.6,0-11.3,0-16.9-0.1
		c-2.5,0-5.1,0-7.6-0.1c-0.5,0-1.3-0.5-1.3-0.9c0-0.9,0.7-1.1,1.6-1.1C50.1,42.5,54.2,42.5,58.3,42.3C58.3,42.5,58.3,42.3,58.3,42.3
		z"/>
	<linearGradient id="SVGID_7_" gradientUnits="userSpaceOnUse" x1="44.4" y1="56.5" x2="72.5" y2="56.5">
		<stop  offset="0" style="stop-color:#00A69C"/>
		<stop  offset="1" style="stop-color:#29B473"/>
	</linearGradient>
	<path class="st7" d="M58.4,57.6c-4.1,0-8.1,0-12.2,0c-0.3,0-0.7,0.1-0.9,0c-0.4-0.3-0.9-0.7-0.9-1.1c0-0.4,0.5-0.8,0.9-1.1
		c0.3-0.1,0.7,0,0.9,0c8.1,0,16.2,0,24.3,0c0.3,0,0.7-0.1,0.8,0c0.4,0.3,0.8,0.7,1.2,1.1c-0.4,0.3-0.8,0.9-1.2,0.9
		c-1.7,0.1-3.3,0-5.1,0C63.8,57.6,61.1,57.6,58.4,57.6z"/>
	<linearGradient id="SVGID_8_" gradientUnits="userSpaceOnUse" x1="31.4347" y1="42.295" x2="43.4186" y2="42.295">
		<stop  offset="0" style="stop-color:#00A69C"/>
		<stop  offset="1" style="stop-color:#29B473"/>
	</linearGradient>
	<path class="st8" d="M35.2,47c-1.2-1.3-2.5-2.5-3.6-4c-0.3-0.4-0.1-1.1-0.1-1.6c0.5,0,1.3-0.1,1.7,0.3c0.8,0.5,1.5,1.3,2.8,2.4
		c1.7-2,3.5-3.9,5.1-5.7c0.5-0.7,1.3-1.2,2-0.4c0.7,0.7,0.1,1.3-0.4,1.9C40.1,42.1,37.8,44.5,35.2,47z"/>
	<linearGradient id="SVGID_9_" gradientUnits="userSpaceOnUse" x1="31.2" y1="29.3494" x2="43.1709" y2="29.3494">
		<stop  offset="0" style="stop-color:#00A69C"/>
		<stop  offset="1" style="stop-color:#29B473"/>
	</linearGradient>
	<path class="st9" d="M35,34.1c-1.2-1.3-2.4-2.7-3.5-4.1c-0.3-0.4-0.1-1.1-0.3-1.6c0.5,0,1.2-0.1,1.6,0.1c0.9,0.7,1.6,1.5,2.7,2.5
		c1.6-1.7,3.1-3.3,4.5-4.9c0.3-0.3,0.5-0.7,0.9-0.9c0.5-0.5,1.2-0.9,1.9-0.3c0.7,0.7,0.3,1.3-0.3,1.9c-1.5,1.5-3.1,2.9-4.5,4.4
		c-0.9,0.9-1.6,1.9-2.4,2.9C35.6,33.9,35.3,33.9,35,34.1z"/>
	<linearGradient id="SVGID_10_" gradientUnits="userSpaceOnUse" x1="31.0988" y1="55.4722" x2="43.253" y2="55.4722">
		<stop  offset="0" style="stop-color:#00A69C"/>
		<stop  offset="1" style="stop-color:#29B473"/>
	</linearGradient>
	<path class="st10" d="M35.8,60.3c-1.7-1.6-2.9-2.8-4.1-4c-0.5-0.5-0.9-1.2-0.3-1.9c0.7-0.7,1.2-0.3,1.9,0.3
		c0.7,0.7,1.5,1.3,2.3,2.1c1.7-1.7,3.5-3.6,5.2-5.3c0.3-0.3,0.5-0.7,0.8-0.8c0.5-0.1,1.2-0.1,1.5,0.3c0.3,0.3,0.1,1.2-0.1,1.5
		C40.6,55.2,38.4,57.7,35.8,60.3z"/>
	<linearGradient id="SVGID_11_" gradientUnits="userSpaceOnUse" x1="31.4347" y1="68.495" x2="43.3394" y2="68.495">
		<stop  offset="0" style="stop-color:#00A69C"/>
		<stop  offset="1" style="stop-color:#29B473"/>
	</linearGradient>
	<path class="st11" d="M35.7,70.2c1.9-2,3.6-3.7,5.3-5.6c0.5-0.7,1.2-1.2,2-0.4c0.8,0.8,0,1.5-0.5,2c-2.3,2.3-4.5,4.7-6.8,7
		c-1.5-1.5-2.8-2.5-4.1-3.9c-0.3-0.3-0.1-1.1-0.1-1.6c0.5,0,1.2-0.1,1.6,0.1C33.8,68.4,34.6,69.2,35.7,70.2z"/>
	<linearGradient id="SVGID_12_" gradientUnits="userSpaceOnUse" x1="44.5" y1="69.8778" x2="57.7" y2="69.8778">
		<stop  offset="0" style="stop-color:#00A69C"/>
		<stop  offset="1" style="stop-color:#29B473"/>
	</linearGradient>
	<path class="st12" d="M51.1,70.8c-1.7,0-3.6,0.1-5.3,0c-0.5,0-0.9-0.7-1.3-1.1c0.4-0.4,0.9-0.9,1.3-0.9c3.5-0.1,6.9,0,10.4,0
		c0.8,0,1.5,0.1,1.5,1.1c0,1.1-0.8,1.1-1.5,1.1C54.4,70.8,52.7,70.8,51.1,70.8z"/>
</g>
</svg>
