<?xml version="1.0" encoding="utf-8"?>
<!-- Generator: Adobe Illustrator 25.0.1, SVG Export Plug-In . SVG Version: 6.00 Build 0)  -->
<svg version="1.1" id="Layer_1" xmlns="http://www.w3.org/2000/svg" xmlns:xlink="http://www.w3.org/1999/xlink" x="0px" y="0px"
	 viewBox="0 0 132.6 103.1" style="enable-background:new 0 0 132.6 103.1;" xml:space="preserve">
<style type="text/css">
	.st0{fill:url(#SVGID_1_);}
	.st1{fill:url(#SVGID_2_);}
	.st2{fill:url(#SVGID_3_);}
	.st3{fill:url(#SVGID_4_);}
	.st4{fill:url(#SVGID_5_);}
	.st5{fill:url(#SVGID_6_);}
	.st6{fill:url(#SVGID_7_);}
	.st7{fill:url(#SVGID_8_);}
	.st8{fill:url(#SVGID_9_);}
	.st9{fill:url(#SVGID_10_);}
	.st10{fill:#2BB673;}
	.st11{fill:url(#SVGID_11_);}
</style>
<g>
	<path d="M89,98.6c0.5,1.4,1.8,2.4,3.3,2.4c1.6,0,2.9-1,3.3-2.4H89z"/>
	<path d="M110.4,98.6c0.5,1.4,1.8,2.4,3.3,2.4c1.6,0,2.9-1,3.3-2.4H110.4z"/>
	
		<linearGradient id="SVGID_1_" gradientUnits="userSpaceOnUse" x1="51.4087" y1="45.6029" x2="123.6027" y2="-31.7007" gradientTransform="matrix(1 0 0 -1 0 50)">
		<stop  offset="0" style="stop-color:#00A79D"/>
		<stop  offset="1" style="stop-color:#2BB673"/>
	</linearGradient>
	<path class="st0" d="M128.8,50.2V37.6h-1v-5.2c0-6.4-5.3-11.7-11.7-11.7H89.9c-6.4,0-11.7,5.3-11.7,11.7v2.5h3.4v-2.5
		c0-4.6,3.7-8.3,8.3-8.3h26.2c4.6,0,8.3,3.7,8.3,8.3v54.5c0,4.6-3.7,8.3-8.3,8.3H89.9c-4.6,0-8.3-3.7-8.3-8.3v-2.1h-3.4v2.1
		c0,6.4,5.3,11.7,11.7,11.7h26.2c6.4,0,11.7-5.3,11.7-11.7V65.4h1V52.8h-1v-2.6H128.8z"/>
	<g>
		<g>
			
				<linearGradient id="SVGID_2_" gradientUnits="userSpaceOnUse" x1="-0.3896" y1="1.9927" x2="108.4097" y2="-29.9835" gradientTransform="matrix(1 0 0 -1 0 50)">
				<stop  offset="0" style="stop-color:#00A79D"/>
				<stop  offset="1" style="stop-color:#2BB673"/>
			</linearGradient>
			<path class="st1" d="M14.1,47.1c0-3.9-2.2-6.1-6.3-6.1H1.9v17.5h3.9v-5.7l4.1,5.7h4.9l-4.6-6.1C12.3,51.8,14.1,50,14.1,47.1z
				 M5.8,44.7h1.7c1.3,0,2.7,0.6,2.7,2.2c0,1.5-1.2,2.3-3.5,2.3H5.8V44.7z"/>
			
				<linearGradient id="SVGID_3_" gradientUnits="userSpaceOnUse" x1="0.8441" y1="6.1902" x2="109.6434" y2="-25.786" gradientTransform="matrix(1 0 0 -1 0 50)">
				<stop  offset="0" style="stop-color:#00A79D"/>
				<stop  offset="1" style="stop-color:#2BB673"/>
			</linearGradient>
			<polygon class="st2" points="16,58.5 26.1,58.5 26.1,54.8 19.9,54.8 19.9,51.5 26.1,51.5 26.1,47.8 19.9,47.8 19.9,44.7 
				26.1,44.7 26.1,41 16,41 			"/>
			
				<linearGradient id="SVGID_4_" gradientUnits="userSpaceOnUse" x1="2.0997" y1="10.4623" x2="110.8989" y2="-21.5138" gradientTransform="matrix(1 0 0 -1 0 50)">
				<stop  offset="0" style="stop-color:#00A79D"/>
				<stop  offset="1" style="stop-color:#2BB673"/>
			</linearGradient>
			<path class="st3" d="M36.9,44.4c1.5,0,2.7,0.6,3.9,2l0.2,0.3h4.5l-0.6-1.2c-1.6-3-4.6-4.8-8.1-4.8c-4.9,0-8.9,4.1-8.9,9.1
				c0,4.8,4.1,9,8.8,9c3.5,0,6.3-1.6,8-4.6l0.7-1.2h-4.6l-0.2,0.3c-1.1,1.2-2.3,1.8-3.8,1.8c-2.7,0-5-2.5-5-5.5
				C31.8,46.8,34.1,44.4,36.9,44.4z"/>
			
				<linearGradient id="SVGID_5_" gradientUnits="userSpaceOnUse" x1="3.1581" y1="14.0634" x2="111.9573" y2="-17.9127" gradientTransform="matrix(1 0 0 -1 0 50)">
				<stop  offset="0" style="stop-color:#00A79D"/>
				<stop  offset="1" style="stop-color:#2BB673"/>
			</linearGradient>
			<path class="st4" d="M58.8,47.1c0-3.9-2.2-6.1-6.3-6.1h-5.9v17.5h3.9v-5.7l4.1,5.7h4.9l-4.6-6.1C56.9,51.8,58.8,50,58.8,47.1z
				 M50.5,44.7h1.7c1.3,0,2.7,0.6,2.7,2.2c0,1.5-1.2,2.3-3.5,2.3h-0.9C50.5,49.2,50.5,44.7,50.5,44.7z"/>
			
				<linearGradient id="SVGID_6_" gradientUnits="userSpaceOnUse" x1="4.3916" y1="18.2609" x2="113.1909" y2="-13.7153" gradientTransform="matrix(1 0 0 -1 0 50)">
				<stop  offset="0" style="stop-color:#00A79D"/>
				<stop  offset="1" style="stop-color:#2BB673"/>
			</linearGradient>
			<polygon class="st5" points="60.6,58.5 70.8,58.5 70.8,54.8 64.5,54.8 64.5,51.5 70.8,51.5 70.8,47.8 64.5,47.8 64.5,44.7 
				70.8,44.7 70.8,41 60.6,41 			"/>
			
				<linearGradient id="SVGID_7_" gradientUnits="userSpaceOnUse" x1="5.252" y1="21.1882" x2="114.0512" y2="-10.7879" gradientTransform="matrix(1 0 0 -1 0 50)">
				<stop  offset="0" style="stop-color:#00A79D"/>
				<stop  offset="1" style="stop-color:#2BB673"/>
			</linearGradient>
			<path class="st6" d="M78.2,41l-6.6,17.5h4.2l1.8-4.7h4.6l1.8,4.7h4.2L81.4,41H78.2z M80.8,50.1h-1.9l0.9-2.8L80.8,50.1z"/>
			
				<linearGradient id="SVGID_8_" gradientUnits="userSpaceOnUse" x1="6.6276" y1="25.8688" x2="115.4269" y2="-6.1073" gradientTransform="matrix(1 0 0 -1 0 50)">
				<stop  offset="0" style="stop-color:#00A79D"/>
				<stop  offset="1" style="stop-color:#2BB673"/>
			</linearGradient>
			<polygon class="st7" points="87.3,44.7 90.3,44.7 90.3,58.5 94.2,58.5 94.2,44.7 97.3,44.7 97.3,41 87.3,41 			"/>
			
				<linearGradient id="SVGID_9_" gradientUnits="userSpaceOnUse" x1="7.1781" y1="27.7418" x2="115.9773" y2="-4.2343" gradientTransform="matrix(1 0 0 -1 0 50)">
				<stop  offset="0" style="stop-color:#00A79D"/>
				<stop  offset="1" style="stop-color:#2BB673"/>
			</linearGradient>
			<rect x="98.8" y="41" class="st8" width="3.9" height="17.5"/>
			
				<linearGradient id="SVGID_10_" gradientUnits="userSpaceOnUse" x1="7.9514" y1="30.373" x2="116.7507" y2="-1.6031" gradientTransform="matrix(1 0 0 -1 0 50)">
				<stop  offset="0" style="stop-color:#00A79D"/>
				<stop  offset="1" style="stop-color:#2BB673"/>
			</linearGradient>
			<polygon class="st9" points="115.5,44.7 115.5,41 105.4,41 105.4,58.5 115.5,58.5 115.5,54.8 109.3,54.8 109.3,51.5 115.5,51.5 
				115.5,47.8 109.3,47.8 109.3,44.7 			"/>
		</g>
		<g>
			<path d="M19.1,71.1H8.3c-0.2,0-0.3,0.2-0.3,0.3v1.4c0,0.2,0.2,0.3,0.3,0.3h8.4c-0.8,2.3-3.3,4-6,4c-3.7,0-6.7-2.9-6.7-6.4
				c0-3.6,3-6.5,6.6-6.5c2.2,0,4.3,1.2,5.4,2.9c0.1,0.1,0.2,0.2,0.3,0.2h1.8c0.1,0,0.2-0.1,0.3-0.2c0.1-0.1,0.1-0.2,0-0.3
				c-0.9-2.3-4-4.7-7.8-4.7c-4.9,0-8.9,3.8-8.9,8.6c0,5.1,4.6,8.6,8.9,8.6c4.6,0,8.4-3.4,8.7-7.9c0-0.1,0-0.2-0.1-0.3
				C19.3,71.2,19.2,71.1,19.1,71.1z"/>
			<path d="M31.6,62.5h-8.7c-0.2,0-0.3,0.2-0.3,0.3v15.9c0,0.2,0.2,0.3,0.3,0.3h8.7c0.2,0,0.3-0.2,0.3-0.3v-1.4
				c0-0.2-0.2-0.3-0.3-0.3h-6.8v-5.2h6.5c0.2,0,0.3-0.2,0.3-0.3V70c0-0.2-0.2-0.3-0.3-0.3h-6.5v-5h6.8c0.2,0,0.3-0.2,0.3-0.3v-1.4
				C31.9,62.7,31.7,62.5,31.6,62.5z"/>
			<path d="M52.3,62.5h-2.4c-0.1,0-0.3,0.1-0.3,0.2L44,75.5l-5.5-12.8c-0.1-0.1-0.2-0.2-0.3-0.2h-2.4c-0.2,0-0.3,0.2-0.3,0.3v15.9
				c0,0.2,0.2,0.3,0.3,0.3h1.6c0.2,0,0.3-0.2,0.3-0.3V66.2L43,78.9c0.1,0.1,0.2,0.2,0.3,0.2h1.4c0.1,0,0.3-0.1,0.3-0.2l5.3-12.7
				v12.6c0,0.2,0.2,0.3,0.3,0.3h1.6c0.2,0,0.3-0.2,0.3-0.3V62.9C52.6,62.7,52.5,62.5,52.3,62.5z"/>
			<path d="M64,62.5h-1.8c-0.1,0-0.3,0.1-0.3,0.2l-6.8,15.9c0,0.1,0,0.2,0,0.3c0.1,0.1,0.2,0.2,0.3,0.2h1.7c0.1,0,0.3-0.1,0.3-0.2
				l2.2-5.1h6.9l2.2,5.1c0.1,0.1,0.2,0.2,0.3,0.2h1.7c0.1,0,0.2-0.1,0.3-0.2c0.1-0.1,0.1-0.2,0-0.3l-6.8-15.9
				C64.3,62.6,64.2,62.5,64,62.5z M65.7,71.6h-5.1l2.6-6.1L65.7,71.6z"/>
			<path d="M79.2,70.6l6.1-7.5c0.1-0.1,0.1-0.2,0-0.4c-0.1-0.1-0.2-0.2-0.3-0.2h-2c-0.1,0-0.2,0-0.3,0.1l-6.7,8.4v-8.2
				c0-0.2-0.2-0.3-0.3-0.3h-1.6c-0.2,0-0.3,0.2-0.3,0.3v15.9c0,0.2,0.2,0.3,0.3,0.3h1.6c0.2,0,0.3-0.2,0.3-0.3v-4.2l1.7-2.1l5,6.6
				c0.1,0.1,0.2,0.1,0.3,0.1h2c0.1,0,0.3-0.1,0.3-0.2c0.1-0.1,0-0.3,0-0.4L79.2,70.6z"/>
		</g>
	</g>
	<path d="M111.6,2h-2.4c-0.3-0.4-0.8-0.7-1.3-0.7h-9.5c-0.6,0-1,0.3-1.3,0.7h-2.4C92,2,90,4.1,90,6.6v14h2v-14
		c0-1.4,1.2-2.6,2.6-2.6h2.5c0.3,0.4,0.7,0.6,1.2,0.6h9.5c0.5,0,0.9-0.2,1.2-0.6h2.5c1.4,0,2.6,1.2,2.6,2.6v14h2v-14
		C116.2,4.1,114.1,2,111.6,2z"/>
	<circle class="st10" cx="102.9" cy="89" r="2.1"/>
	<rect x="112.9" y="87" class="st10" width="3.9" height="3.9"/>
	<polygon class="st10" points="91.5,91 88.6,89 91.5,86.9 	"/>
	
		<linearGradient id="SVGID_11_" gradientUnits="userSpaceOnUse" x1="100.0531" y1="22.6914" x2="105.8332" y2="16.5022" gradientTransform="matrix(1 0 0 -1 0 50)">
		<stop  offset="0" style="stop-color:#00A79D"/>
		<stop  offset="1" style="stop-color:#2BB673"/>
	</linearGradient>
	<path class="st11" d="M107.2,31.7h-8.5c-0.7,0-1.3-0.6-1.3-1.3l0,0c0-0.7,0.6-1.3,1.3-1.3h8.5c0.7,0,1.3,0.6,1.3,1.3l0,0
		C108.5,31.1,107.9,31.7,107.2,31.7z"/>
</g>
</svg>
