<?xml version="1.0" encoding="utf-8"?>
<!-- Generator: Adobe Illustrator 25.0.1, SVG Export Plug-In . SVG Version: 6.00 Build 0)  -->
<svg version="1.1" id="Layer_1" xmlns="http://www.w3.org/2000/svg" xmlns:xlink="http://www.w3.org/1999/xlink" x="0px" y="0px"
	 viewBox="0 0 151.6 79" style="enable-background:new 0 0 151.6 79;" xml:space="preserve">
<style type="text/css">
	.st0{fill:#FFFFFF;}
	.st1{fill:url(#SVGID_1_);}
</style>
<rect class="st0" width="151.6" height="79"/>
<linearGradient id="SVGID_1_" gradientUnits="userSpaceOnUse" x1="0.9814" y1="39.55" x2="68.4048" y2="39.55">
	<stop  offset="0" style="stop-color:#00A69C"/>
	<stop  offset="1" style="stop-color:#29B473"/>
</linearGradient>
<path class="st1" d="M65.7,46.4c-2.2-0.7-10.9,9-7.6,8.1c1.6-0.3,2.9-0.4,3.9-0.7c-2.3,4.4-7.6,10-19.4,10.1c-3.5,0-3.5-3.3-3.5-3.3
	l-1.2-33c3.9-0.1,10.4-0.3,14.7-1.1v-2.1v-0.1v-1.4c-4.3-0.8-11.1-1.1-14.8-1.1l-0.1-7.1c2.7-1.1,4.7-3.8,4.7-7
	c0-4.1-3.3-7.6-7.6-7.6c-4.2,0-7.6,3.3-7.6,7.6c0,3.1,1.9,5.8,4.7,7l-0.2,6.8c-3.9,0.1-10.5,0.3-14.8,1.1V24l0,0v2.1
	c4.3,0.8,10.7,1.1,14.7,1.1l-1.2,33c0,0,0,3.4-3.5,3.3c-12.1,0-17.5-5.6-19.8-10c1,0,2.3,0.1,3.9,0.7c3,0.8-5.5-8.8-7.6-8.1
	C1.2,46.8,0,59.7,2,57.2c0.3-0.8,1-1.3,1.6-2c2.7,9.3,11.7,14.1,20.9,17.6c5.5,2,8,3.7,9.3,5.4c0.6,0.7,0.9,0.8,0.9,0.8
	s0.3,0,0.9-0.8c1.3-1.8,3.9-3.4,9.3-5.4c9.2-3.4,18.2-8.3,20.9-17.6c0.6,0.4,1.2,1.1,1.9,2C69.2,60.1,68.2,47.2,65.7,46.4z
	 M34.4,11.2c-2,0-3.5-1.4-3.5-3.4s1.6-3.4,3.5-3.4s3.5,1.4,3.5,3.4C38,9.6,36.4,11.2,34.4,11.2z"/>
</svg>
