<?xml version="1.0" encoding="utf-8"?>
<!-- Generator: Adobe Illustrator 25.0.1, SVG Export Plug-In . SVG Version: 6.00 Build 0)  -->
<svg version="1.1" id="Layer_1" xmlns="http://www.w3.org/2000/svg" xmlns:xlink="http://www.w3.org/1999/xlink" x="0px" y="0px"
	 viewBox="0 0 59.8 59.8" style="enable-background:new 0 0 59.8 59.8;" xml:space="preserve">
<style type="text/css">
	.st0{fill:url(#phone-solid_1_);}
</style>
<linearGradient id="phone-solid_1_" gradientUnits="userSpaceOnUse" x1="3.070981e-02" y1="29.9654" x2="59.8" y2="29.9654">
	<stop  offset="0" style="stop-color:#00A69C"/>
	<stop  offset="1" style="stop-color:#29B473"/>
</linearGradient>
<path id="phone-solid" class="st0" d="M57.7,2.9L45.5,0.1c-1.3-0.3-2.7,0.4-3.2,1.6l-5.6,13.1c-0.5,1.1-0.2,2.5,0.8,3.3l7.1,5.8
	c-4.3,9-11.6,16.4-20.7,20.7l-5.8-7.1c-0.8-1-2.1-1.3-3.3-0.8L1.7,42.3c-1.2,0.5-1.9,1.9-1.6,3.2l2.8,12.2c0.3,1.3,1.4,2.2,2.7,2.2
	c29.9,0,54.2-24.3,54.2-54.2l0,0C59.8,4.3,58.9,3.2,57.7,2.9z"/>
</svg>
