<?xml version="1.0" encoding="utf-8"?>
<!-- Generator: Adobe Illustrator 25.0.1, SVG Export Plug-In . SVG Version: 6.00 Build 0)  -->
<svg version="1.1" id="Layer_1" xmlns="http://www.w3.org/2000/svg" xmlns:xlink="http://www.w3.org/1999/xlink" x="0px" y="0px"
	 viewBox="0 0 87.5 74.8" style="enable-background:new 0 0 87.5 74.8;" xml:space="preserve">
<style type="text/css">
	.st0{fill:url(#Path_12_1_);}
</style>
<g id="noun_Profit_201055" transform="translate(-10.013 -15.82)">
	<linearGradient id="Path_12_1_" gradientUnits="userSpaceOnUse" x1="10" y1="53.3" x2="97.5" y2="53.3">
		<stop  offset="0" style="stop-color:#00A69C"/>
		<stop  offset="1" style="stop-color:#29B473"/>
	</linearGradient>
	<path id="Path_12" class="st0" d="M45.6,33.1l17,3.6L86.5,22l1.9,3.1l5-9.2l-10.5,0.3l1.9,3.1L62,33.2l-17-3.6L13.4,49l1.7,2.8
		L45.6,33.1z M40.1,63.9v4.6c0,2.4,5.8,5,13.6,5s13.6-2.7,13.6-5v-4.6c-2.8,2.1-7.7,3.4-13.6,3.4S42.9,66,40.1,63.9z M40.1,81.1v4.6
		c0,2.4,5.8,5,13.6,5s13.6-2.6,13.6-5v-4.6c-2.8,2.1-7.7,3.4-13.6,3.4S42.9,83.2,40.1,81.1z M70.3,42.8c0,2.4,5.8,5,13.6,5
		s13.6-2.6,13.6-5s-5.8-5-13.6-5S70.3,40.4,70.3,42.8z M10,81.1v4.6c0,2.4,5.8,5,13.6,5s13.6-2.6,13.6-5v-4.6
		c-2.8,2.1-7.7,3.4-13.6,3.4S12.8,83.2,10,81.1z M23.7,72c-7.8,0-13.6,2.6-13.6,5s5.8,5,13.6,5s13.6-2.6,13.6-5S31.5,72,23.7,72z
		 M40.1,72.5v4.6c0,2.4,5.8,5,13.6,5s13.6-2.6,13.6-5v-4.6c-2.8,2.1-7.7,3.4-13.6,3.4S42.9,74.6,40.1,72.5L40.1,72.5z M70.3,55.4V60
		c0,2.4,5.8,5,13.6,5s13.6-2.6,13.6-5v-4.6c-2.8,2.1-7.7,3.4-13.6,3.4S73,57.5,70.3,55.4z M70.3,63.9v4.6c0,2.4,5.8,5,13.6,5
		s13.6-2.6,13.6-5v-4.6c-2.8,2.1-7.7,3.4-13.6,3.4S73,66,70.3,63.9z M53.8,54.9c-7.8,0-13.6,2.6-13.6,5s5.8,5,13.6,5
		s13.6-2.6,13.6-5S61.6,54.9,53.8,54.9z M70.3,46.8v4.6c0,2.4,5.8,5,13.6,5s13.6-2.6,13.6-5v-4.6c-2.8,2.1-7.7,3.4-13.6,3.4
		S73,48.9,70.3,46.8L70.3,46.8z M70.3,72.5v4.6c0,2.4,5.8,5,13.6,5s13.6-2.7,13.6-5v-4.6c-2.8,2.1-7.7,3.4-13.6,3.4
		S73,74.6,70.3,72.5L70.3,72.5z M70.3,81.1v4.6c0,2.4,5.8,5,13.6,5s13.6-2.6,13.6-5v-4.6c-2.8,2.1-7.7,3.4-13.6,3.4
		S73,83.2,70.3,81.1L70.3,81.1z"/>
</g>
</svg>
