<svg xmlns="http://www.w3.org/2000/svg" width="21.515" height="17.474" viewBox="0 0 21.515 17.474">
  <path id="twitter-brands" d="M19.3,52.437c.014.191.014.382.014.573A12.46,12.46,0,0,1,6.771,65.556,12.461,12.461,0,0,1,0,63.576a9.122,9.122,0,0,0,1.065.055,8.831,8.831,0,0,0,5.474-1.884,4.417,4.417,0,0,1-4.123-3.058,5.561,5.561,0,0,0,.833.068,4.663,4.663,0,0,0,1.16-.15A4.41,4.41,0,0,1,.874,54.28v-.055a4.441,4.441,0,0,0,1.993.56,4.416,4.416,0,0,1-1.365-5.9A12.534,12.534,0,0,0,10.593,53.5a4.978,4.978,0,0,1-.109-1.01,4.414,4.414,0,0,1,7.631-3.017,8.681,8.681,0,0,0,2.8-1.065,4.4,4.4,0,0,1-1.939,2.43,8.84,8.84,0,0,0,2.539-.683A9.478,9.478,0,0,1,19.3,52.437Z" transform="translate(0 -48.082)" fill="#1da1f2"/>
</svg>
