<?xml version="1.0" encoding="utf-8"?>
<!-- Generator: Adobe Illustrator 25.0.1, SVG Export Plug-In . SVG Version: 6.00 Build 0)  -->
<svg version="1.1" id="Layer_1" xmlns="http://www.w3.org/2000/svg" xmlns:xlink="http://www.w3.org/1999/xlink" x="0px" y="0px"
	 viewBox="0 0 108 105" style="enable-background:new 0 0 108 105;" xml:space="preserve">
<style type="text/css">
	.st0{fill:#F7F8F9;}
	.st1{fill:url(#Path_9_1_);}
	.st2{fill:url(#Path_10_1_);}
	.st3{fill:url(#Path_11_1_);}
</style>
<rect x="2" class="st0" width="108" height="105"/>
<g id="Group_126" transform="translate(-940.95 -513.69)">
	<g id="Group_94" transform="translate(1100.258 881.623)">
		<linearGradient id="Path_9_1_" gradientUnits="userSpaceOnUse" x1="-157.5209" y1="-314.7453" x2="-61.1409" y2="-314.7453">
			<stop  offset="0" style="stop-color:#00A69C"/>
			<stop  offset="1" style="stop-color:#29B473"/>
		</linearGradient>
		<path id="Path_9" class="st1" d="M-77.9-323.5c0,5.5-1.2,11-3.5,16c-0.6,1-0.4,2.3,0.6,2.9c5.4,5.5,10.7,11,16.1,16.6
			c3.7,4,4.6,9.7,2.3,14.5c-2.3,4.9-7.3,7.8-12.7,7.5c-3.5-0.1-6.7-1.7-9-4.2c-5.2-5.5-10.6-10.9-15.9-16.4
			c-0.6-0.9-1.8-1.2-2.7-0.6c-20.2,8.3-43.4-1.3-51.8-21.5c-1.2-2.7-1.9-5.6-2.4-8.6c-4-21.9,11.8-43.3,33.8-45.9
			c22.5-2.7,42.1,12.4,44.8,34.9C-77.9-326.5-78-325.1-77.9-323.5z M-117.3-357.2c-18.6-0.1-33.7,14.8-33.8,33.4c0,0.1,0,0.1,0,0.3
			c0,18.4,15,33.5,33.4,33.5c18.6,0.1,33.7-14.7,33.8-33.3c0-0.1,0-0.4,0-0.5C-84-342.2-99-357.1-117.3-357.2L-117.3-357.2z
			 M-95.4-290c0.9,0.8,2,1.7,3.1,2.7c4.4,4.4,8.6,8.8,12.9,13.2c2.7,2.8,7.3,2.9,10.2,0.3c2.8-2.7,2.9-7.2,0.3-10L-69-284
			c-0.9-0.9-1.8-1.9-2.7-2.8c-4.6-4.4-9.2-8.6-13.7-12.8L-95.4-290z"/>
		<linearGradient id="Path_10_1_" gradientUnits="userSpaceOnUse" x1="-145.8936" y1="-323.1161" x2="-90.3166" y2="-323.1161">
			<stop  offset="0" style="stop-color:#00A69C"/>
			<stop  offset="1" style="stop-color:#29B473"/>
		</linearGradient>
		<path id="Path_10" class="st2" d="M-117.8-342.5c7.3,0.3,14.3,3.2,19.5,8.4c2.7,2.8,5.2,5.8,7.4,9c0.6,1,0.8,2.4,0.3,3.6
			c-5,7.9-11.3,14.3-20.6,16.8c-9.2,2.4-17.5,0.3-24.6-5.9c-3.5-2.9-6.1-6.8-9.2-10.2c-1-1-1.2-2.6-0.4-3.8
			c5-7.8,11.4-14.2,20.7-16.8C-122.4-342-120.1-342.3-117.8-342.5z M-96.6-323.3c-2-2.2-3.8-4.5-6-6.4c-4.6-4.2-9.9-6.8-16.1-6.4
			c-8.8,0.4-14.8,5.5-19.8,12.2c-0.3,0.6-0.1,1.3,0.3,1.8c1.5,1.9,3.2,3.7,5,5.5c3.8,3.8,8.8,6.1,14.2,6.4
			C-109.1-309.8-102.4-315.5-96.6-323.3z"/>
		<linearGradient id="Path_11_1_" gradientUnits="userSpaceOnUse" x1="-127.6" y1="-323.15" x2="-108.4931" y2="-323.15">
			<stop  offset="0" style="stop-color:#00A69C"/>
			<stop  offset="1" style="stop-color:#29B473"/>
		</linearGradient>
		<path id="Path_11" class="st3" d="M-108.5-323.1c0,5.2-4.4,9.5-9.6,9.5l0,0c-5.2-0.1-9.5-4.4-9.5-9.6c0.1-5.2,4.4-9.5,9.7-9.5
			C-112.5-332.7-108.3-328.5-108.5-323.1L-108.5-323.1z M-118-319.8c1.9,0.1,3.5-1.3,3.6-3.2v-0.1c0.1-1.9-1.4-3.5-3.2-3.6h-0.1
			c-1.8-0.1-3.5,1.3-3.6,3.1c0,0.1,0,0.1,0,0.3c-0.1,1.8,1.3,3.5,3.1,3.5C-118.2-319.8-118.2-319.8-118-319.8L-118-319.8z"/>
	</g>
</g>
</svg>
